<?xml version="1.0" encoding="utf-8"?>
<!-- Generator: Adobe Illustrator 26.3.0, SVG Export Plug-In . SVG Version: 6.00 Build 0)  -->
<svg version="1.1" id="Capa_1" xmlns="http://www.w3.org/2000/svg" xmlns:xlink="http://www.w3.org/1999/xlink" x="0px" y="0px"
	 viewBox="0 0 300 300" style="enable-background:new 0 0 300 300;" xml:space="preserve">
<style type="text/css">
	.st0{fill:#D6D6D6;}
	.st1{fill:#FFFFFF;stroke:#AFAFAF;stroke-miterlimit:10;}
	.st2{fill:#B2B2B2;}
	.st3{fill:#FFFFFF;}
</style>
<rect class="st0" width="300" height="300"/>
<path class="st1" d="M293.06897,295.68967H7.41379c-1.44737,0-2.62069-1.17334-2.62069-2.6207V7.41379
	c0-1.44737,1.17332-2.62069,2.62069-2.62069h285.65518c1.44736,0,2.6207,1.17332,2.6207,2.62069v285.65518
	C295.68967,294.51633,294.51633,295.68967,293.06897,295.68967z"/>
<path class="st2" d="M234.20674,172.9657H65.58636c-12.74072,0-23.06911-10.3284-23.06911-23.06912v-0.00005
	c0-12.74072,10.3284-23.06911,23.06911-23.06911h168.62039c12.74072,0,23.06911,10.32839,23.06911,23.06911v0.00005
	C257.27585,162.6373,246.94746,172.9657,234.20674,172.9657z"/>
<g>
	<path class="st3" d="M79.46533,139.67773c0.45068,0,0.8335,0.15576,1.14795,0.4668
		c0.31396,0.31104,0.47119,0.68262,0.47119,1.11426c0,0.44434-0.15381,0.81592-0.46191,1.11426s-0.69385,0.44775-1.15723,0.44775
		c-0.43799,0-0.81104-0.15088-1.11914-0.45264c-0.30811-0.30127-0.46191-0.66504-0.46191-1.09033
		c0-0.45068,0.14941-0.83008,0.44775-1.13818s0.66357-0.46191,1.09521-0.46191H79.46533z M78.12256,143.55371h2.77148v9.13477
		h-2.77148V143.55371z"/>
	<path class="st3" d="M92.51318,142.77295v2.1333c0,1.65088-0.39844,2.94775-1.19531,3.89062s-1.88721,1.41455-3.27148,1.41455
		c-1.54932,0-2.74609-0.58301-3.59033-1.74805c-0.84473-1.16504-1.26709-2.82666-1.26709-4.98584
		c0-2.17773,0.4209-3.83008,1.26221-4.95703s2.07129-1.69043,3.69043-1.69043c1.81592,0,3.13037,0.96826,3.94287,2.90479
		l-2.75244,1.1333c-0.22852-0.40625-0.44141-0.70312-0.6377-0.89062c-0.19727-0.18701-0.4668-0.28076-0.80957-0.28076
		c-0.58447,0-0.99854,0.30615-1.24316,0.91895s-0.3667,1.60498-0.3667,2.97607c0,1.27637,0.13818,2.21436,0.41455,2.81445
		c0.27588,0.6001,0.71582,0.90039,1.31885,0.90039c0.96533,0,1.46338-0.68896,1.49512-2.06689h-1.34277v-2.4668H92.51318z"/>
	<path class="st3" d="M94.63721,137.18213h5.83838v2.70508h-2.95264v2.34277h2.56201v2.63818h-2.56201v2.31445h2.97168v2.71436
		h-5.85742V137.18213z"/>
	<path class="st3" d="M102.77051,137.18213h2.91455l3.6665,7.3335l-0.10449-1.37109v-5.9624h2.88574v12.71484h-2.96191
		l-3.59082-7.21924l0.07617,1.58105v5.63818h-2.88574V137.18213z"/>
	<path class="st3" d="M114.86621,137.18213h5.83838v2.70508h-2.95264v2.34277h2.56201v2.63818h-2.56201v2.31445h2.97168v2.71436
		h-5.85742V137.18213z"/>
	<path class="st3" d="M123,137.18213h3.3623c1.3584,0,2.43164,0.34961,3.21875,1.04785
		c0.7876,0.69873,1.18115,1.64746,1.18115,2.84766c0,0.61621-0.14941,1.21143-0.44775,1.78564
		c-0.29834,0.57471-0.7334,1.0083-1.30469,1.30029l2.30469,5.7334h-3.04736l-2.3335-5.79053h-0.04785v5.79053H123V137.18213z
		 M125.88574,139.63965v3.01904c1.27637-0.02539,1.91455-0.47314,1.91455-1.34277c0-0.59082-0.14746-1.0127-0.44287-1.2666
		S126.57178,139.65869,125.88574,139.63965z"/>
	<path class="st3" d="M141.83838,149.89697h-3l-0.48584-2.12402h-3.04736l-0.50488,2.12402h-2.94287l3.37158-12.71484h3.23779
		L141.83838,149.89697z M137.80029,145.4873c-0.43164-1.89209-0.75586-3.69189-0.97168-5.3999h-0.03809
		c-0.22852,1.75879-0.54932,3.55859-0.96191,5.3999H137.80029z"/>
	<path class="st3" d="M141.78076,137.18213h6.88672v2.90527h-1.99121v9.80957h-2.92383v-9.80957h-1.97168V137.18213z"/>
	<path class="st3" d="M150.4585,137.18213h5.83838v2.70508h-2.95215v2.34277h2.56152v2.63818h-2.56152v2.31445h2.97168v2.71436
		h-5.85791V137.18213z"/>
	<path class="st3" d="M163.47754,137.18213h2.88574v12.71484h-2.88574V137.18213z"/>
	<path class="st3" d="M170.10645,137.18213h3.64746c0.52051,2.74316,0.92969,5.10205,1.22852,7.07666l0.31445-1.97168
		c0.12695-0.76807,0.26367-1.51709,0.40918-2.24756l0.5625-2.85742h3.72363l1.44727,12.71484h-2.85645l-0.77148-8.74316
		l-1.78125,8.74316h-1.95312l-1.86621-8.76221l-0.74316,8.76221h-2.7334L170.10645,137.18213z"/>
	<path class="st3" d="M192.6123,149.89697h-3l-0.48633-2.12402h-3.04785l-0.50488,2.12402h-2.94238l3.37109-12.71484h3.23828
		L192.6123,149.89697z M188.57324,145.4873c-0.43164-1.89209-0.75488-3.69189-0.9707-5.3999h-0.03809
		c-0.22852,1.75879-0.5498,3.55859-0.96191,5.3999H188.57324z"/>
	<path class="st3" d="M202.6416,142.77295v2.1333c0,1.65088-0.39941,2.94775-1.19531,3.89062
		c-0.79688,0.94287-1.8877,1.41455-3.27148,1.41455c-1.5498,0-2.74707-0.58301-3.59082-1.74805
		c-0.84473-1.16504-1.2666-2.82666-1.2666-4.98584c0-2.17773,0.41992-3.83008,1.26172-4.95703
		c0.84082-1.12695,2.07129-1.69043,3.69043-1.69043c1.81641,0,3.12988,0.96826,3.94336,2.90479l-2.75293,1.1333
		c-0.22852-0.40625-0.44141-0.70312-0.6377-0.89062c-0.19727-0.18701-0.4668-0.28076-0.80957-0.28076
		c-0.58398,0-0.99902,0.30615-1.24316,0.91895s-0.36621,1.60498-0.36621,2.97607c0,1.27637,0.1377,2.21436,0.41406,2.81445
		s0.71582,0.90039,1.31934,0.90039c0.96484,0,1.46289-0.68896,1.49512-2.06689h-1.34277v-2.4668H202.6416z"/>
	<path class="st3" d="M204.76465,137.18213h5.83789v2.70508h-2.95215v2.34277h2.56152v2.63818h-2.56152v2.31445h2.97168v2.71436
		h-5.85742V137.18213z"/>
	<path class="st3" d="M212.89844,149.65869v-2.96191c0.91406,0.53369,1.68164,0.80029,2.30469,0.80029
		c0.36133,0,0.64746-0.1001,0.85742-0.30029c0.20898-0.19971,0.31348-0.46484,0.31348-0.79492
		c0-0.25391-0.08398-0.49219-0.25195-0.71436s-0.45898-0.49219-0.87109-0.80957c-0.99707-0.76221-1.71973-1.47168-2.16699-2.12891
		c-0.44824-0.65723-0.67188-1.38867-0.67188-2.19531c0-1.09814,0.34668-1.99365,1.03809-2.68555
		c0.69238-0.69189,1.58789-1.03809,2.68652-1.03809c0.8125,0,1.61816,0.1748,2.41895,0.52393v2.84766
		c-0.85742-0.47021-1.55273-0.70508-2.08594-0.70508c-0.35547,0-0.63672,0.0874-0.84277,0.26221
		c-0.20703,0.17432-0.30957,0.41406-0.30957,0.71875c0,0.53369,0.47949,1.1333,1.4375,1.80029
		c0.57227,0.39355,1.15137,0.94775,1.73828,1.66162c0.58789,0.71436,0.88086,1.5415,0.88086,2.48145
		c0,1.09814-0.38379,2.00781-1.15234,2.72803c-0.76758,0.7207-1.74219,1.08105-2.92383,1.08105
		C214.49219,150.22998,213.69141,150.03955,212.89844,149.65869z"/>
	<path class="st3" d="M80.62695,152.28223h5.83838v2.72363H83.5127v2.32422h2.6001v2.63867h-2.6001v5.02832h-2.88574V152.28223z"/>
	<path class="st3" d="M92.49414,165.31152c-1.53662,0-2.70801-0.58887-3.51416-1.7666
		c-0.80664-1.17773-1.20996-2.87793-1.20996-5.10059c0-2.05078,0.40479-3.64941,1.21436-4.79492
		c0.80957-1.14648,1.93848-1.71973,3.38623-1.71973c1.54248,0,2.72217,0.5752,3.53809,1.72461
		c0.81543,1.14844,1.22363,2.79004,1.22363,4.92383c0,2.13281-0.40137,3.78906-1.20459,4.9668
		S93.97998,165.31152,92.49414,165.31152z M92.38965,154.81543c-1.0415,0-1.56201,1.22266-1.56201,3.66699
		c0,1.5752,0.13135,2.62598,0.39502,3.15234c0.26367,0.52734,0.646,0.79102,1.14795,0.79102
		c0.53955,0,0.95361-0.26367,1.24268-0.79102c0.28906-0.52637,0.43311-1.55859,0.43311-3.09473
		C94.04639,156.05762,93.49414,154.81543,92.38965,154.81543z"/>
	<path class="st3" d="M99.2749,152.28223h3.3623c1.3584,0,2.43164,0.34961,3.21875,1.04785
		c0.7876,0.69824,1.18115,1.64746,1.18115,2.84766c0,0.61621-0.14941,1.21094-0.44775,1.78613
		c-0.29834,0.57422-0.7334,1.00781-1.30469,1.2998l2.30469,5.7334h-3.04736l-2.3335-5.79102h-0.04785v5.79102H99.2749V152.28223z
		 M102.16064,154.73926v3.01953c1.27637-0.02539,1.91455-0.47266,1.91455-1.34277c0-0.59082-0.14746-1.0127-0.44287-1.2666
		S102.84668,154.75879,102.16064,154.73926z"/>
	<path class="st3" d="M113.04736,152.28223h6.88574v2.90527h-1.99072v9.80957h-2.92383v-9.80957h-1.97119V152.28223z"/>
	<path class="st3" d="M121.72314,152.28223h2.88574v4.71484h2.56201v-4.71484h2.88574v12.71484h-2.88574v-5.28613h-2.56201v5.28613
		h-2.88574V152.28223z"/>
	<path class="st3" d="M132.88574,152.28223h2.88574v12.71484h-2.88574V152.28223z"/>
	<path class="st3" d="M138.59033,164.75879v-2.96191c0.91406,0.5332,1.68164,0.7998,2.30469,0.7998
		c0.36133,0,0.64844-0.09961,0.85742-0.2998s0.31445-0.46484,0.31445-0.79492c0-0.25391-0.08398-0.49219-0.25195-0.71484
		c-0.16797-0.22168-0.45898-0.49121-0.87109-0.80957c-0.99805-0.76172-1.7207-1.4707-2.16748-2.12793
		c-0.44775-0.65723-0.67188-1.38965-0.67188-2.19531c0-1.09863,0.34619-1.99414,1.03857-2.68652
		c0.69141-0.69141,1.58789-1.03809,2.68555-1.03809c0.8125,0,1.61914,0.1748,2.41992,0.52441v2.84766
		c-0.85742-0.46973-1.55273-0.70508-2.08594-0.70508c-0.35547,0-0.63672,0.08789-0.84375,0.26172
		c-0.20703,0.1748-0.30859,0.41504-0.30859,0.71973c0,0.5332,0.47852,1.13281,1.4375,1.7998
		c0.57227,0.39355,1.15039,0.94727,1.73828,1.66211c0.58789,0.71387,0.88086,1.54102,0.88086,2.48047
		c0,1.09863-0.38477,2.00879-1.15234,2.72852c-0.76758,0.7207-1.74219,1.08105-2.92383,1.08105
		C140.18408,165.33008,139.3833,165.13965,138.59033,164.75879z"/>
	<path class="st3" d="M158.5918,161.99707v3.01953c-0.60938,0.19629-1.15527,0.29492-1.6377,0.29492
		c-1.66992,0-3.02441-0.62695-4.0625-1.88086s-1.55664-2.90332-1.55664-4.94824c0-1.89844,0.52344-3.46484,1.57129-4.7002
		c1.04785-1.23438,2.37109-1.85254,3.97168-1.85254c0.62207,0,1.19336,0.08301,1.71387,0.24805v3.02832
		c-0.55176-0.18359-1.07324-0.27637-1.56152-0.27637c-0.74902,0-1.37207,0.34375-1.86719,1.0293s-0.74219,1.55859-0.74219,2.61914
		c0,1.14258,0.24902,2.0459,0.74707,2.70898c0.49902,0.66406,1.16406,0.99512,1.99512,0.99512
		C157.56934,162.28223,158.0459,162.1875,158.5918,161.99707z"/>
	<path class="st3" d="M160.45898,152.28223h2.88574v4.71484h2.56152v-4.71484h2.88574v12.71484h-2.88574v-5.28613h-2.56152v5.28613
		h-2.88574V152.28223z"/>
	<path class="st3" d="M180.41113,164.99707h-3l-0.48633-2.12402h-3.04785l-0.50488,2.12402h-2.94238l3.37109-12.71484h3.23828
		L180.41113,164.99707z M176.37207,160.58789c-0.43164-1.89258-0.75488-3.69238-0.9707-5.40039h-0.03809
		c-0.22852,1.75879-0.5498,3.55859-0.96191,5.40039H176.37207z"/>
	<path class="st3" d="M181.86914,152.28223h3.57129c1.25684,0,2.2666,0.35938,3.02832,1.07617
		c0.76172,0.71777,1.14355,1.66406,1.14355,2.83887c0,1.2373-0.38574,2.20801-1.15723,2.90918s-1.83984,1.05273-3.20508,1.05273
		h-0.49512v4.83789h-2.88574V152.28223z M184.75488,154.7207v3c0.64746-0.0127,1.125-0.13672,1.43262-0.37109
		c0.30859-0.23535,0.46191-0.60645,0.46191-1.11426c0-0.54688-0.14844-0.93262-0.44727-1.15723
		C185.90332,154.85254,185.4209,154.7334,184.75488,154.7207z"/>
	<path class="st3" d="M190.83984,152.28223h6.88672v2.90527h-1.99121v9.80957h-2.92383v-9.80957h-1.97168V152.28223z"/>
	<path class="st3" d="M199.5166,152.28223h5.83789v2.70508h-2.95215v2.34277h2.56152v2.63867h-2.56152v2.31348h2.97168v2.71484
		h-5.85742V152.28223z"/>
	<path class="st3" d="M207.65039,152.28223h3.36133c1.35938,0,2.43164,0.34961,3.21973,1.04785
		c0.78711,0.69824,1.18066,1.64746,1.18066,2.84766c0,0.61621-0.14941,1.21094-0.44727,1.78613
		c-0.29883,0.57422-0.7334,1.00781-1.30469,1.2998l2.30469,5.7334h-3.04785l-2.33398-5.79102h-0.04688v5.79102h-2.88574V152.28223z
		 M210.53613,154.73926v3.01953c1.27637-0.02539,1.91406-0.47266,1.91406-1.34277c0-0.59082-0.14746-1.0127-0.44336-1.2666
		C211.71191,154.89551,211.22168,154.75879,210.53613,154.73926z"/>
	<path class="st3" d="M217.59375,163.74902c0-0.43164,0.15527-0.7998,0.4668-1.10449
		c0.31055-0.30469,0.68164-0.45703,1.11426-0.45703c0.43164,0,0.80273,0.1543,1.11426,0.46191
		c0.31055,0.30762,0.4668,0.6748,0.4668,1.09961c0,0.43848-0.15625,0.81152-0.4668,1.11914
		c-0.31152,0.30859-0.68262,0.46191-1.11426,0.46191c-0.43848,0-0.81152-0.15332-1.11914-0.46191
		C217.74707,164.56055,217.59375,164.1875,217.59375,163.74902z M217.77441,152.28223h2.77148v9.12402h-2.77148V152.28223z"/>
</g>
<g>
</g>
<g>
</g>
<g>
</g>
<g>
</g>
<g>
</g>
<g>
</g>
</svg>
