<?xml version="1.0" encoding="utf-8"?>
<svg xmlns="http://www.w3.org/2000/svg" xmlns:xlink="http://www.w3.org/1999/xlink" style="margin: auto; background: rgb(255, 255, 255); display: block; shape-rendering: auto;" width="237px" height="237px" viewBox="0 0 100 100" preserveAspectRatio="xMidYMid">
<g transform="translate(50 50)">
<g>
<animateTransform attributeName="transform" type="rotate" values="0;51.42857142857143" keyTimes="0;1" dur="0.4444444444444444s" repeatCount="indefinite"></animateTransform><path d="M28.01338965566288 -7.500000000000001 L37.01338965566288 -7.500000000000001 L37.01338965566288 7.500000000000001 L28.01338965566288 7.500000000000001 A29 29 0 0 1 23.329798884310968 17.22557644950098 L23.329798884310968 17.22557644950098 L28.94120710103957 24.26205979171325 L17.213734864019123 33.61440681959425 L11.602326647290521 26.57792347738198 A29 29 0 0 1 1.078393711903417 28.979942494803662 L1.078393711903417 28.979942494803662 L-0.9242946937034133 37.75429370444007 L-15.548213376430772 34.416479695095354 L-13.54552497082394 25.642128485458944 A29 29 0 0 1 -21.985063920790232 18.911820758424284 L-21.985063920790232 18.911820758424284 L-30.093783731912005 22.816774410482306 L-36.60203981867538 9.302241391946012 L-28.49332000755361 5.397287739887989 A29 29 0 0 1 -28.49332000755361 -5.397287739887982 L-28.49332000755361 -5.397287739887982 L-36.60203981867538 -9.302241391946005 L-30.093783731912012 -22.8167744104823 L-21.98506392079024 -18.911820758424277 A29 29 0 0 1 -13.545524970823946 -25.642128485458944 L-13.545524970823946 -25.642128485458944 L-15.548213376430777 -34.416479695095354 L-0.9242946937034147 -37.75429370444007 L1.0783937119034162 -28.979942494803662 A29 29 0 0 1 11.60232664729051 -26.577923477381987 L11.60232664729051 -26.577923477381987 L17.21373486401911 -33.61440681959425 L28.941207101039566 -24.26205979171325 L23.329798884310968 -17.22557644950098 A29 29 0 0 1 28.013389655662877 -7.5000000000000115 M0 -15A15 15 0 1 0 0 15 A15 15 0 1 0 0 -15" fill="#ffa600"></path></g></g>
<!-- [ldio] generated by https://loading.io/ --></svg>