<?xml version="1.0" encoding="utf-8"?>
<!-- Generator: Adobe Illustrator 26.3.0, SVG Export Plug-In . SVG Version: 6.00 Build 0)  -->
<svg version="1.1" id="Capa_1" xmlns="http://www.w3.org/2000/svg" xmlns:xlink="http://www.w3.org/1999/xlink" x="0px" y="0px"
	 viewBox="0 0 220 220" style="enable-background:new 0 0 220 220;" xml:space="preserve">
<style type="text/css">
	.st0{fill:#7676B6;}
	.st1{fill:#FFFFFF;}
</style>
<rect class="st0" width="220" height="220"/>
<path class="st1" d="M200.45,26.9H21.69c-5.14,0-9.31-4.17-9.31-9.31v0c0-5.14,4.17-9.31,9.31-9.31h178.76
	c5.14,0,9.31,4.17,9.31,9.31v0C209.76,22.73,205.59,26.9,200.45,26.9z"/>
<path class="st1" d="M176.86,79.1H20.24c-5.14,0-9.31-4.17-9.31-9.31v0c0-5.14,4.17-9.31,9.31-9.31h156.62
	c5.14,0,9.31,4.17,9.31,9.31v0C186.17,74.94,182,79.1,176.86,79.1z"/>
<path class="st1" d="M158.24,105.76h-138c-5.14,0-9.31-4.17-9.31-9.31v0c0-5.14,4.17-9.31,9.31-9.31h138c5.14,0,9.31,4.17,9.31,9.31
	v0C167.55,101.59,163.38,105.76,158.24,105.76z"/>
<path class="st1" d="M99.86,52.45H21.34c-5.14,0-9.31-4.17-9.31-9.31v0c0-5.14,4.17-9.31,9.31-9.31h78.52
	c5.14,0,9.31,4.17,9.31,9.31v0C109.17,48.28,105,52.45,99.86,52.45z"/>
<path class="st1" d="M199.38,132.28H20.62c-5.14,0-9.31-4.17-9.31-9.31v0c0-5.14,4.17-9.31,9.31-9.31h178.76
	c5.14,0,9.31,4.17,9.31,9.31v0C208.69,128.11,204.52,132.28,199.38,132.28z"/>
<path class="st1" d="M169.83,157.79H20.24c-5.14,0-9.31-4.17-9.31-9.31v0c0-5.14,4.17-9.31,9.31-9.31h149.59
	c5.14,0,9.31,4.17,9.31,9.31v0C179.14,153.62,174.97,157.79,169.83,157.79z"/>
<path class="st1" d="M169.83,183.31H20.24c-5.14,0-9.31-4.17-9.31-9.31v0c0-5.14,4.17-9.31,9.31-9.31h149.59
	c5.14,0,9.31,4.17,9.31,9.31v0C179.14,179.14,174.97,183.31,169.83,183.31z"/>
<path class="st1" d="M169.83,207.83H20.24c-5.14,0-9.31-4.17-9.31-9.31v0c0-5.14,4.17-9.31,9.31-9.31h149.59
	c5.14,0,9.31,4.17,9.31,9.31v0C179.14,203.66,174.97,207.83,169.83,207.83z"/>
</svg>
