<?xml version="1.0" encoding="utf-8"?>
<!-- Generator: Adobe Illustrator 26.3.0, SVG Export Plug-In . SVG Version: 6.00 Build 0)  -->
<svg version="1.1" id="Capa_1" xmlns="http://www.w3.org/2000/svg" xmlns:xlink="http://www.w3.org/1999/xlink" x="0px" y="0px"
	 viewBox="0 0 220 220" style="enable-background:new 0 0 220 220;" xml:space="preserve">
<style type="text/css">
	.st0{fill:#7676B6;}
	.st1{fill:#FFFFFF;}
	.st2{fill:#8E8E8E;}
	.st3{font-family:'MyriadPro-Regular';}
	.st4{font-size:5.8461px;}
</style>
<rect x="0.68" y="0.17" class="st0" width="220" height="220"/>
<path class="st1" d="M161.22,56.03H19.83c-5.14,0-9.31-4.17-9.31-9.31v0c0-5.14,4.17-9.31,9.31-9.31h141.39
	c5.14,0,9.31,4.17,9.31,9.31v0C170.53,51.87,166.36,56.03,161.22,56.03z"/>
<path class="st1" d="M192.53,81.62H19.72c-5.14,0-9.31-4.17-9.31-9.31v0c0-5.14,4.17-9.31,9.31-9.31h172.81
	c5.14,0,9.31,4.17,9.31,9.31v0C201.84,77.45,197.67,81.62,192.53,81.62z"/>
<path class="st1" d="M61.82,206.37H19.56c-3.11,0-5.64-2.52-5.64-5.64v-42.27c0-3.11,2.52-5.64,5.64-5.64h42.27
	c3.11,0,5.64,2.52,5.64,5.64v42.27C67.46,203.84,64.93,206.37,61.82,206.37z"/>
<path class="st1" d="M128.69,206.37H87.76c-3.48,0-6.3-2.82-6.3-6.3v-40.93c0-3.48,2.82-6.3,6.3-6.3h40.93c3.48,0,6.3,2.82,6.3,6.3
	v40.93C135,203.55,132.18,206.37,128.69,206.37z"/>
<path class="st1" d="M193.93,206.37h-43.71c-2.71,0-4.91-2.2-4.91-4.91v-43.71c0-2.71,2.2-4.91,4.91-4.91h43.71
	c2.71,0,4.91,2.2,4.91,4.91v43.71C198.84,204.17,196.64,206.37,193.93,206.37z"/>
<path class="st1" d="M193.34,141.74h-42.55c-3.03,0-5.49-2.46-5.49-5.49V93.69c0-3.03,2.46-5.49,5.49-5.49h42.55
	c3.03,0,5.49,2.46,5.49,5.49v42.55C198.84,139.28,196.38,141.74,193.34,141.74z"/>
<path class="st1" d="M198.48,30.45H19.72c-5.14,0-9.31-4.17-9.31-9.31v0c0-5.14,4.17-9.31,9.31-9.31h178.76
	c5.14,0,9.31,4.17,9.31,9.31v0C207.79,26.28,203.62,30.45,198.48,30.45z"/>
<text transform="matrix(1 0 0 1 156.5862 116.724)" class="st2 st3 st4">1024x1024</text>
<text transform="matrix(1 0 0 1 157.1942 182.7098)" class="st2 st3 st4">1024x1024</text>
<text transform="matrix(1 0 0 1 94.0472 182.774)" class="st2 st3 st4">1024x1024</text>
<text transform="matrix(1 0 0 1 26.8486 182.8382)" class="st2 st3 st4">1024x1024</text>
<path class="st1" d="M130.38,109.82H19.83c-5.14,0-9.31-4.17-9.31-9.31v0c0-5.14,4.17-9.31,9.31-9.31h110.55
	c5.14,0,9.31,4.17,9.31,9.31v0C139.69,105.65,135.52,109.82,130.38,109.82z"/>
<path class="st1" d="M130.38,139.48H19.83c-5.14,0-9.31-4.17-9.31-9.31v0c0-5.14,4.17-9.31,9.31-9.31h110.55
	c5.14,0,9.31,4.17,9.31,9.31v0C139.69,135.31,135.52,139.48,130.38,139.48z"/>
</svg>
